<svg width="18" height="18" viewBox="0 0 18 18" fill="none" xmlns="http://www.w3.org/2000/svg">
<path d="M0 9C0 4.02944 4.02944 0 9 0C13.9706 0 18 4.02944 18 9C18 13.9706 13.9706 18 9 18C4.02944 18 0 13.9706 0 9Z" fill="#3F3B3D"/>
<path d="M11.4653 9.4668V10.6592C11.4653 11.3001 11.408 11.8408 11.2935 12.2812C11.1789 12.7217 11.0142 13.0762 10.7993 13.3447C10.5845 13.6133 10.3249 13.8084 10.0205 13.9302C9.71973 14.0483 9.37956 14.1074 9 14.1074C8.69922 14.1074 8.42171 14.0698 8.16748 13.9946C7.91325 13.9194 7.68408 13.7995 7.47998 13.6348C7.27946 13.4665 7.10758 13.248 6.96436 12.9795C6.82113 12.7109 6.71191 12.3851 6.63672 12.002C6.56152 11.6188 6.52393 11.1712 6.52393 10.6592V9.4668C6.52393 8.82585 6.58122 8.28874 6.6958 7.85547C6.81396 7.4222 6.98047 7.07487 7.19531 6.81348C7.41016 6.5485 7.66797 6.35872 7.96875 6.24414C8.27311 6.12956 8.61328 6.07227 8.98926 6.07227C9.29362 6.07227 9.57292 6.10986 9.82715 6.18506C10.085 6.25667 10.3141 6.37305 10.5146 6.53418C10.7152 6.69173 10.8853 6.90299 11.0249 7.16797C11.1681 7.42936 11.2773 7.74984 11.3525 8.12939C11.4277 8.50895 11.4653 8.95475 11.4653 9.4668ZM10.4663 10.8203V9.30029C10.4663 8.94938 10.4448 8.64144 10.4019 8.37646C10.3625 8.10791 10.3034 7.87874 10.2246 7.68896C10.1458 7.49919 10.0456 7.34521 9.92383 7.22705C9.80566 7.10889 9.66781 7.02295 9.51025 6.96924C9.35628 6.91195 9.18262 6.8833 8.98926 6.8833C8.75293 6.8833 8.54346 6.92806 8.36084 7.01758C8.17822 7.10352 8.02425 7.24137 7.89893 7.43115C7.77718 7.62093 7.68408 7.86979 7.61963 8.17773C7.55518 8.48568 7.52295 8.85986 7.52295 9.30029V10.8203C7.52295 11.1712 7.54264 11.481 7.58203 11.7495C7.625 12.0181 7.68766 12.2508 7.77002 12.4478C7.85238 12.6411 7.95264 12.8005 8.0708 12.9258C8.18896 13.0511 8.32503 13.1442 8.479 13.2051C8.63656 13.2624 8.81022 13.291 9 13.291C9.24349 13.291 9.45654 13.2445 9.63916 13.1514C9.82178 13.0583 9.97396 12.9132 10.0957 12.7163C10.221 12.5158 10.3141 12.2598 10.375 11.9482C10.4359 11.6331 10.4663 11.2572 10.4663 10.8203Z" fill="white"/>
</svg>
